<?xml version="1.0" encoding="utf-8"?>
<!-- Generator: Adobe Illustrator 18.1.1, SVG Export Plug-In . SVG Version: 6.00 Build 0)  -->
<svg version="1.1"
	 id="svg2" inkscape:version="0.48.5 r10040" sodipodi:docname="styleguide.png" xmlns:osb="http://www.openswatchbook.org/uri/2009/osb" xmlns:dc="http://purl.org/dc/elements/1.1/" xmlns:cc="http://creativecommons.org/ns#" xmlns:rdf="http://www.w3.org/1999/02/22-rdf-syntax-ns#" xmlns:svg="http://www.w3.org/2000/svg" xmlns:sodipodi="http://sodipodi.sourceforge.net/DTD/sodipodi-0.dtd" xmlns:inkscape="http://www.inkscape.org/namespaces/inkscape"
	 xmlns="http://www.w3.org/2000/svg" xmlns:xlink="http://www.w3.org/1999/xlink" x="0px" y="0px" viewBox="66 -130.4 744.1 1052.4"
	 enable-background="new 66 -130.4 744.1 1052.4" xml:space="preserve">
<filter  inkscape:collect="always" id="filter6111">
	<feGaussianBlur  inkscape:collect="always" stdDeviation="0.4" id="feGaussianBlur6113"></feGaussianBlur>
</filter>
<filter  inkscape:collect="always" id="filter5836">
	<feGaussianBlur  inkscape:collect="always" stdDeviation="1.0491113" id="feGaussianBlur5838"></feGaussianBlur>
</filter>
<defs>
	
	
		<inkscape:perspective  inkscape:persp3d-origin="372.04724 : 350.78739 : 1" inkscape:vp_z="744.09448 : 526.18109 : 1" inkscape:vp_y="0 : 1000 : 0" inkscape:vp_x="0 : 526.18109 : 1" sodipodi:type="inkscape:persp3d" id="perspective5808">
		</inkscape:perspective>
</defs>
<sodipodi:namedview  showguides="true" showgrid="false" inkscape:cy="925.92763" inkscape:cx="219.77362" inkscape:zoom="0.61" borderopacity="1.0" bordercolor="#666666" pagecolor="#ffffff" id="base" inkscape:pageopacity="0.0" inkscape:document-units="px" inkscape:pageshadow="2" inkscape:current-layer="layer2" inkscape:window-width="1061" inkscape:window-height="726" inkscape:window-x="37" inkscape:window-y="0" inkscape:window-maximized="0" inkscape:guide-bbox="true">
	</sodipodi:namedview>
<g id="layer1" inkscape:groupmode="layer" inkscape:label="Layer 1">
	<text transform="matrix(1 0 0 1 104.5714 -39.4286)" fill="#193629" font-family="'Arial-BoldMT'" font-size="36">BUNGALOW</text>
	<path id="path3004" inkscape:connector-curvature="0" stroke="#000000" d="M106.1-93.7H329"/>
	<text transform="matrix(1 0 0 1 107.0564 -99.4286)" font-family="'ArialMT'" font-size="16">Logo Type</text>
	
		<image overflow="visible" enable-background="new    " width="224" height="1" id="image3797" xlink:href="B2186BC5DBE7E2E7.png"  transform="matrix(1 0 0 1 105.6496 68.6429)">
	</image>
	<text transform="matrix(1 0 0 1 105.0096 64.2857)" font-family="'ArialMT'" font-size="16">Header Type</text>
	<text transform="matrix(1 0 0 1 104.3214 121.1428)" font-family="'Kameron'" font-size="40">Introducing Bungalow</text>
	<text transform="matrix(1 0 0 1 448.9294 -40.6451)" font-family="'ArialMT'" font-size="12">Rockwell</text>
	<text transform="matrix(1 0 0 1 517.7144 119.7143)" font-family="'Kameron'" font-size="12">Kameron</text>
	
		<image overflow="visible" enable-background="new    " width="224" height="1" id="image3884" xlink:href="B2186BC5DBE7E2E5.png"  transform="matrix(1 0 0 1 105.6496 210.0714)">
	</image>
	<text transform="matrix(1 0 0 1 104.7746 249.1428)" font-family="'Muli-Light'" font-size="28">Helping Millenials get the</text>
	<text transform="matrix(1 0 0 1 104.7746 284.1429)" font-family="'Muli-Light'" font-size="28">Insurance they need in a way </text>
	<text transform="matrix(1 0 0 1 104.7746 319.1429)" font-family="'Muli-Light'" font-size="28">they can actually understand</text>
	<text transform="matrix(1 0 0 1 105.2355 207.7143)" font-family="'Muli-Light'" font-size="16">Type</text>
	<text transform="matrix(1 0 0 1 510.2857 319.1429)" font-family="'Muli-Light'" font-size="12">Muli</text>
	
		<rect id="rect5481" x="100.2" y="604.8" fill="#314052" stroke="#82A997" stroke-width="0.8825" stroke-opacity="0.314" width="468.7" height="253"/>
	<g id="g3058" transform="matrix(1.3616693,0,0,1,-113.05114,0.78333462)">
		<path id="path5595" inkscape:connector-curvature="0" fill="#314052" stroke="#193629" stroke-width="2.964" d="M364.2-55.1v14.8"
			/>
		<path id="path5619" inkscape:connector-curvature="0" fill="#314052" stroke="#193629" stroke-width="2.9643" d="M333.9-55.1v14.8
			"/>
		<path id="path5621" inkscape:connector-curvature="0" fill="#314052" stroke="#193629" stroke-width="3.5569" d="M328.5-51.6
			l21.6-13.1"/>
		<path id="path5623" inkscape:connector-curvature="0" fill="#314052" stroke="#193629" stroke-width="3.5569" d="M348.4-64.7
			l21.5,13"/>
	</g>
	<text transform="matrix(1 0 0 1 161.0537 434.4131)" font-family="'Muli-Light'" font-size="12">49, 64, 82</text>
	<rect id="rect5798" x="121.6" y="376.7" fill="#314052" fill-opacity="0" width="93.9" height="46.4"/>
	<rect id="rect5800" x="134.4" y="345.9" fill="#314052" fill-opacity="0" width="133.3" height="100.8"/>
	<g id="g6226" transform="translate(0,2)">
		<path id="path6206" inkscape:connector-curvature="0" fill="none" stroke="#FFFFFF" stroke-width="1.1216" d="M117.3,614.8v6.1
			l0,0"/>
		<path id="path6210" inkscape:connector-curvature="0" fill="none" stroke="#FFFFFF" stroke-width="1.146" d="M130.1,614.9v6.1"/>
		<path id="path6212" inkscape:connector-curvature="0" fill="none" stroke="#FFFFFF" stroke-width="1.3924" d="M115.3,615.7
			l8.8-5.3"/>
		<path id="path6214" inkscape:connector-curvature="0" fill="none" stroke="#FFFFFF" stroke-width="1.3524" d="M132.1,615.8
			l-8.8-5.4"/>
	</g>
</g>
<g id="layer2" inkscape:groupmode="layer" inkscape:label="Text">
	<text transform="matrix(1 0 0 1 501.9807 620.5546)" fill="#FFFFFF" font-family="'ArialMT'" font-size="11">Privacy</text>
	<text transform="matrix(1 0 0 1 112.8197 684.2623)" fill="#FFFFFF" font-family="'ArialMT'" font-size="28">Say hello to Bungalow</text>
	<text transform="matrix(1 0 0 1 112.6488 705.7705)" fill="#FFFFFF" font-family="'Muli-Light'" font-size="14">Simplifying Renters Insurance</text>
	
		<text transform="matrix(1 0 0 1 112.888 780.5787)" fill="#73F5B9" filter="url(#filter5836)" font-family="'Muli-Light'" font-size="14">1. Enter your Zip Code</text>
	<text transform="matrix(1 0 0 1 112.888 798.0787)" fill="#73F5B9" font-family="'Muli-Light'" font-size="14">2. Compare your options</text>
	<text transform="matrix(1 0 0 1 112.888 815.5787)" fill="#73F5B9" font-family="'Muli-Light'" font-size="14">3. Get your quote</text>
	<path id="path5539" inkscape:connector-curvature="0" fill="none" stroke="#27443F" stroke-width="0.1" d="M99.6,623.5h467.2"/>
	
		<rect id="rect5826" x="108.7" y="411.3" fill="#314052" stroke="#314052" stroke-width="0.3261" stroke-miterlimit="1" width="39.7" height="39.7"/>
	
		<rect id="rect5828" x="108.9" y="453.7" fill="#394A5F" stroke="#5F7C9E" stroke-width="0.6706" stroke-miterlimit="1" width="39.3" height="39.3"/>
	
		<rect id="rect5830" x="108.9" y="369.3" fill="#222C38" stroke="#314052" stroke-width="0.6706" stroke-miterlimit="1" width="39.3" height="39.3"/>
	<rect id="rect5832" x="108.5" y="495.6" fill="#5F7C9E" width="40" height="40"/>
	<rect id="rect5834" x="108.5" y="537.9" fill="#85ADDE" width="40" height="40"/>
	<rect id="rect6101" x="264.2" y="411.2" fill="#377659" width="40" height="40"/>
	<rect id="rect6103" x="264.2" y="537.9" fill="#73F5B9" width="40" height="40"/>
	<rect id="rect6105" x="264.2" y="495.6" fill="#67DCAA" width="40" height="40"/>
	<rect id="rect6107" x="264.2" y="454.3" fill="#55B689" width="40.6" height="38.3"/>
	<g id="rect6109" filter="url(#filter6111)">
		<rect x="264.2" y="368.9" fill="#193629" width="40" height="40"/>
	</g>
</g>
</svg>
